{
 "cells": [
  {
   "cell_type": "markdown",
   "metadata": {},
   "source": [
    "A notebook for making a 100-frame movie from 3D dust for Linnea as a test\n",
    "\n",
    "Two environment variables need to be set in bash: DROPBOX_ROOT, and FFMPEG_ROOT. The DROPBOX_ROOT folder is the path to the top level directory of the dust-holgrams folder shared by Josh. E.g. in bash,\n",
    "\n",
    "export DROPBOX_ROOT='/Users/catherinezucker/Dropbox/dust-holograms/'\n",
    "\n",
    "You can also set the path to the FFMPEG executable:\n",
    "\n",
    "export FFMPEG_PATH='/usr/local/bin'\n",
    "\n",
    "Ideally, you would set these in your bash_profile profile  (now called zprofile in the latest OS operating systems). Alternatively, if you want to set one of these variables locally in this notebook, you can use:\n",
    "\n",
    "```\n",
    "import os\n",
    "os.environ['DROPBOX_ROOT'] = '/Users/catherinezucker/Dropbox/dust-holograms'\n",
    "os.environ['FFMPEG_ROOT'] = '/Usr/local/bin'\n",
    "\n",
    "```"
   ]
  },
  {
   "cell_type": "markdown",
   "metadata": {},
   "source": [
    "First thing we need to do is figure out how to write some json"
   ]
  },
  {
   "cell_type": "code",
   "execution_count": 15,
   "metadata": {},
   "outputs": [],
   "source": [
    "import json\n",
    "import numpy as np\n",
    "import os\n",
    "%matplotlib inline\n",
    "#%matplotlib notebook\n",
    "from matplotlib import pyplot as plt\n",
    "from astropy import table"
   ]
  },
  {
   "cell_type": "markdown",
   "metadata": {},
   "source": [
    "Josh is having some trouble with ```.zprofile``` so:"
   ]
  },
  {
   "cell_type": "code",
   "execution_count": 16,
   "metadata": {},
   "outputs": [],
   "source": [
    "if (os.environ.keys() != 'DROPBOX_HOME'):\n",
    "    os.environ['DROPBOX_ROOT'] = '/Users/jegpeek/Dropbox/dust-holograms'\n",
    "    os.environ['FFMPEG_ROOT'] = '/Users/jegpeek/'"
   ]
  },
  {
   "cell_type": "markdown",
   "metadata": {},
   "source": [
    "Using a variable called ```run_name``` to record everything we need about the run"
   ]
  },
  {
   "cell_type": "code",
   "execution_count": 17,
   "metadata": {},
   "outputs": [],
   "source": [
    "def define_paths(run_name):\n",
    "    if os.path.isdir(\"{}/{}/\".format(os.environ['DROPBOX_ROOT'],run_name)) == False:\n",
    "        os.mkdir(\"{}/{}/\".format(os.environ['DROPBOX_ROOT'],run_name))\n",
    "        os.mkdir(\"{}/{}/frames/\".format(os.environ['DROPBOX_ROOT'],run_name))"
   ]
  },
  {
   "cell_type": "markdown",
   "metadata": {},
   "source": [
    "This is the camera properties, which we will fix."
   ]
  },
  {
   "cell_type": "code",
   "execution_count": 18,
   "metadata": {},
   "outputs": [],
   "source": [
    "arc = False\n",
    "if arc:\n",
    "    ec = \"szyz\"\n",
    "if not arc:\n",
    "    ec = \"rxyz\"\n",
    "\n",
    "t = True\n",
    "cprops ={\n",
    "    \"projection\": \"stereographic\",\n",
    "    \"step_size\": 1,\n",
    "    \"max_dist\": 500.0,\n",
    "    \"fov\": 45.0,\n",
    "    \"x_pix\": 60,\n",
    "    \"y_pix\": 40,\n",
    "    \"vmax\": \"auto\",\n",
    "    \"clip_mode\": \"tanh\",\n",
    "    \"fuzzy\": t,\n",
    "    \"randomize_angles\": t,\n",
    "    \"euler_convention\": ec}"
   ]
  },
  {
   "cell_type": "code",
   "execution_count": 19,
   "metadata": {},
   "outputs": [
    {
     "name": "stdout",
     "output_type": "stream",
     "text": [
      "{'projection': 'stereographic', 'step_size': 1, 'max_dist': 500.0, 'fov': 45.0, 'x_pix': 60, 'y_pix': 40, 'vmax': 'auto', 'clip_mode': 'tanh', 'fuzzy': True, 'randomize_angles': True, 'euler_convention': 'rxyz'}\n"
     ]
    }
   ],
   "source": [
    "print(cprops)"
   ]
  },
  {
   "cell_type": "markdown",
   "metadata": {},
   "source": [
    "_In arc mode_ Linnea asked for 100 frames orbiting around a point with equal distance. We'll assume that the middle of these 100 frames is the Sun, and we'll set some sweep out angle in the Galactic Plane."
   ]
  },
  {
   "cell_type": "code",
   "execution_count": 20,
   "metadata": {},
   "outputs": [],
   "source": [
    "nframes = 19 # 100 frames\n",
    "if arc:\n",
    "    angle_sweep = 45 # half of this CCW and half CW from the sun"
   ]
  },
  {
   "cell_type": "code",
   "execution_count": 21,
   "metadata": {},
   "outputs": [],
   "source": [
    "def sweep(xc, yc, angle_sweep, nframes):\n",
    "    R = np.sqrt(xc**2+ yc**2)\n",
    "    phi =np.arctan2(yc, xc)*180/np.pi\n",
    "    dangs = np.linspace(0, angle_sweep, nframes)\n",
    "    xs = xc - R*np.cos((phi-angle_sweep/2+dangs)*np.pi/180)\n",
    "    ys = yc - R*np.sin((phi-angle_sweep/2+dangs)*np.pi/180)\n",
    "    angs = (dangs-angle_sweep/2+phi)*np.pi/180 ## wait are these in RADIANs??\n",
    "    return xs, ys, angs"
   ]
  },
  {
   "cell_type": "code",
   "execution_count": 22,
   "metadata": {},
   "outputs": [],
   "source": [
    "def plot_ang(x0, y0, xs, ys, run_name):\n",
    "    plt.figure(figsize=[5, 5])\n",
    "    plt.scatter(x0, y0)\n",
    "    plt.scatter(0, 0, c='red')\n",
    "    plt.plot(xs, ys)\n",
    "    plt.xlim([-500, 500])\n",
    "    plt.ylim([-500, 500])\n",
    "    plt.title(run_name)\n",
    "    plt.savefig('{}/{}/arc_{}'.format(os.environ['DROPBOX_ROOT'],run_name,run_name))"
   ]
  },
  {
   "cell_type": "markdown",
   "metadata": {},
   "source": [
    "In track mode we'll move from one point to another while pointing at the cloud and keeping to top of the camera perpindicular to the plane that contains the track and cloud"
   ]
  },
  {
   "cell_type": "markdown",
   "metadata": {},
   "source": [
    "Given the current position of the viewer, the unit direction toward the start of the track, and the cloud position, compute the angles of rotation"
   ]
  },
  {
   "cell_type": "code",
   "execution_count": 23,
   "metadata": {},
   "outputs": [],
   "source": [
    "def determine_angles(v_pos, c_pos, t_hat):\n",
    "    x_hat = np.array([1, 0, 0])\n",
    "    y_hat = np.array([0, 1, 0])\n",
    "    z_hat = np.array([0, 0, 1])\n",
    "    # the vector to the cloud\n",
    "    c_vec = c_pos-v_pos\n",
    "    # the unit vector toward the cloud\n",
    "    c_hat = c_vec/np.sqrt(np.sum(c_vec**2))\n",
    "    \n",
    "    #FIRST\n",
    "    # the unit vector perp to the plane containing the track and the cloud\n",
    "    n_OCT = np.cross(c_hat, t_hat) #CHECK ORDER ####FLIPPED\n",
    "    n_hat_OCT = n_OCT/np.sqrt(np.sum(n_OCT**2))\n",
    "    #print('n_hat_OCT', n_hat_OCT)\n",
    "    #print('c_hat', c_hat)\n",
    "    #print('v_pos', v_pos)\n",
    "    #print('c_vec', c_vec)\n",
    "    #print('c_pos', c_pos)\n",
    "    # find the new orientation of the side of the camera\n",
    "    v_y_prime = np.cross(n_hat_OCT, x_hat) #CHECK ORDER (correct)\n",
    "    v_hat_y_prime = v_y_prime/np.sqrt(np.sum(v_y_prime**2))\n",
    "    # and find the angle to rotate first\n",
    "    theta = np.arccos(np.dot(v_hat_y_prime,y_hat))\n",
    "    #print('theta', theta)\n",
    "    #print('v_hat_y_prime',v_hat_y_prime)\n",
    "    \n",
    "    #SECOND\n",
    "    # the unit vector perp to the plane that contains the rotation \n",
    "    #n_phi = np.cross(v_hat_y_prime, x_hat) #CHECK ORDER ###FLIPPED\n",
    "    #n_hat_phi = n_phi/np.sqrt(np.sum(n_phi**2))\n",
    "    # the vector being rotated to\n",
    "    #v_x_prime_prime = np.cross(n_hat_OCT,n_hat_phi) #CHECK ORDER (correct)\n",
    "    #### OOOPS\n",
    "    v_x_prime_prime = np.cross(v_hat_y_prime, n_hat_OCT)\n",
    "    v_hat_x_prime_prime = v_x_prime_prime/np.sqrt(np.sum(v_x_prime_prime**2))\n",
    "    # and the angle rotated\n",
    "    phi = np.arccos(np.dot(v_hat_x_prime_prime, x_hat))\n",
    "    #print('n_phi', n_phi)\n",
    "    \n",
    "    #FINALLY\n",
    "    zeta = np.arccos(np.dot(v_hat_x_prime_prime, c_hat))\n",
    "    print('c hat', c_hat)\n",
    "    return theta, phi, zeta\n",
    "    "
   ]
  },
  {
   "cell_type": "markdown",
   "metadata": {},
   "source": [
    "given some inputs build a track"
   ]
  },
  {
   "cell_type": "code",
   "execution_count": 24,
   "metadata": {},
   "outputs": [],
   "source": [
    "def track(xt1, yt1, zt1, xt2, yt2, zt2, nframes):\n",
    "    xts = np.linspace(xt1, xt2, nframes)\n",
    "    yts = np.linspace(yt1, yt2, nframes)\n",
    "    zts = np.linspace(zt1, zt2, nframes)\n",
    "    t_vec = np.array([xt2-xt1, yt2-yt1, zt2-zt1])\n",
    "    t_hat = t_vec/np.sqrt(np.sum(t_vec**2))\n",
    "    return xts, yts, zts, t_hat"
   ]
  },
  {
   "cell_type": "code",
   "execution_count": 25,
   "metadata": {},
   "outputs": [],
   "source": [
    "def build_fprops(fprops, cprops, angs, xs, ys, zc):\n",
    "    for i in range(nframes):\n",
    "        fprops.append({\n",
    "          \"xyz\": [xs[i], ys[i], zc],\n",
    "          \"angles\": [angs[i], 0.0, 0.0]\n",
    "        })\n",
    "    allprops = {\"camera_props\": cprops,\"frame_props\":fprops }\n",
    "    return allprops"
   ]
  },
  {
   "cell_type": "code",
   "execution_count": 26,
   "metadata": {},
   "outputs": [],
   "source": [
    "def build_fprops_track(fprops, cprops, theatas, phis, zetas, xs, ys, zs):\n",
    "    for i in range(nframes):\n",
    "        fprops.append({\n",
    "          \"xyz\": [xs[i], ys[i], zs[i]],\n",
    "          \"angles\": [thetas[i], phis[i], zetas[i]]\n",
    "        })\n",
    "    allprops = {\"camera_props\": cprops,\"frame_props\":fprops }\n",
    "    return allprops"
   ]
  },
  {
   "cell_type": "markdown",
   "metadata": {},
   "source": [
    "Let's read in a list of molecular clouds and make movies for each one:"
   ]
  },
  {
   "cell_type": "code",
   "execution_count": 27,
   "metadata": {},
   "outputs": [],
   "source": [
    "clouds = table.Table.read('{}/Holo_Cloud_Targets.csv'.format(os.environ['DROPBOX_ROOT']))\n",
    "#clouds = table.Table.read('{}/Holo_TEST_Targets.csv'.format(os.environ['DROPBOX_ROOT']))"
   ]
  },
  {
   "cell_type": "code",
   "execution_count": 28,
   "metadata": {},
   "outputs": [
    {
     "name": "stdout",
     "output_type": "stream",
     "text": [
      "Chamaeleon\n",
      "[ 0.87415728 -0.48564293  0.        ]\n",
      "c hat [ 0.62485057 -0.75639806 -0.19345219]\n",
      "25.299589809325603 13.355740562576404 50.042466908587876 50.042466908587876\n",
      "c hat [ 0.61295617 -0.76430337 -0.20031247]\n",
      "25.299589809325603 13.355740562576404 50.95027419762971 0.9078072890418311\n",
      "c hat [ 0.60001952 -0.77257416 -0.20761921]\n",
      "25.299589809325603 13.355740562576404 51.92456884864203 0.9742946510123224\n",
      "c hat [ 0.58591426 -0.78121902 -0.21540966]\n",
      "25.299589809325603 13.355740562576404 52.97230219059096 1.047733341948931\n",
      "c hat [ 0.57049558 -0.79024203 -0.22372376]\n",
      "25.299589809325603 13.355740562576404 54.10131594420795 1.1290137536169835\n",
      "c hat [ 0.55359742 -0.79964072 -0.23260396]\n",
      "25.29958980932562 13.355740562576404 55.32046227655706 1.2191463323491114\n",
      "c hat [ 0.53502933 -0.80940334 -0.24209472]\n",
      "25.29958980932562 13.355740562576404 56.6397351963399 1.3192729197828437\n",
      "c hat [ 0.51457302 -0.81950518 -0.25224168]\n",
      "25.299589809325603 13.355740562576404 58.07041070830708 1.43067551196718\n",
      "c hat [ 0.49197888 -0.82990377 -0.26309031]\n",
      "25.299589809325603 13.355740562576404 59.625190380516 1.5547796722089178\n",
      "c hat [ 0.46696249 -0.84053247 -0.27468381]\n",
      "25.299589809325603 13.355740562576404 61.31833864123995 1.6931482607239488\n",
      "c hat [ 0.43920172 -0.85129222 -0.28705995]\n",
      "25.299589809325603 13.355740562576404 63.1657975184269 1.847458877186955\n",
      "c hat [ 0.40833515 -0.86204088 -0.30024644]\n",
      "25.299589809325603 13.355740562576404 65.18525278481613 2.019455266389237\n",
      "c hat [ 0.37396286 -0.87258001 -0.31425451]\n",
      "25.299589809325603 13.355740562576404 67.39611159426092 2.210858809444778\n",
      "c hat [ 0.33565135 -0.88263874 -0.32906995]\n",
      "25.299589809325603 13.355740562576404 69.81933287475486 2.4232212804939475\n",
      "c hat [ 0.29294511 -0.89185511 -0.3446413 ]\n",
      "25.299589809325603 13.355740562576404 72.47702797508568 2.657695100330809\n",
      "c hat [ 0.24538807 -0.89975624 -0.3608648 ]\n",
      "25.299589809325603 13.355740562576404 75.39172242755913 2.914694452473465\n",
      "c hat [ 0.19255887 -0.90573986 -0.37756641]\n",
      "25.299589809325603 13.355740562576404 78.58514655272909 3.193424125169948\n",
      "c hat [ 0.13412397 -0.90906244 -0.39448225]\n",
      "25.299589809325603 13.355740562576404 82.07641671966809 3.4912701669390027\n",
      "c hat [ 0.06991091 -0.90884189 -0.41124067]\n",
      "25.29958980932562 13.355740562576404 85.87950437169023 3.8030876520221426\n",
      "Loaded specifications for 19 images.\n"
     ]
    },
    {
     "name": "stderr",
     "output_type": "stream",
     "text": [
      "100% (19 of 19) |########################| Elapsed Time: 0:00:04 ETA:  00:00:00"
     ]
    },
    {
     "name": "stdout",
     "output_type": "stream",
     "text": [
      "All workers done.\n",
      "0.397824734759316\n",
      "Loading map ...\n",
      "Ray-casting frames ...\n",
      "frame 0: vmax = 0.016659770933765687\n",
      "frame 1: vmax = 0.017916911780594093\n",
      "frame 2: vmax = 0.017033658425880276\n",
      "frame 3: vmax = 0.018947241715497512\n",
      "frame 4: vmax = 0.017468555059887876\n",
      "frame 5: vmax = 0.015294391357223503\n",
      "frame 6: vmax = 0.02113461638539957\n",
      "frame 7: vmax = 0.016840029650498765\n",
      "frame 8: vmax = 0.026146960495192616\n",
      "frame 9: vmax = 0.02386520939453476\n",
      "frame 10: vmax = 0.01768711079390778\n",
      "frame 11: vmax = 0.02742641761469713\n",
      "frame 12: vmax = 0.03112779617108754\n",
      "frame 13: vmax = 0.022099464467639336\n",
      "frame 14: vmax = 0.031095473719062284\n",
      "frame 15: vmax = 0.023699611506206565\n",
      "frame 16: vmax = 0.01926198616255715\n",
      "frame 17: vmax = 0.01967479124160309\n",
      "frame 18: vmax = 0.011943642129073851\n",
      "Worker finished.\n"
     ]
    },
    {
     "name": "stderr",
     "output_type": "stream",
     "text": [
      "ffmpeg version 5.0-tessus  https://evermeet.cx/ffmpeg/  Copyright (c) 2000-2022 the FFmpeg developers\n",
      "  built with Apple clang version 11.0.0 (clang-1100.0.33.17)\n",
      "  configuration: --cc=/usr/bin/clang --prefix=/opt/ffmpeg --extra-version=tessus --enable-avisynth --enable-fontconfig --enable-gpl --enable-libaom --enable-libass --enable-libbluray --enable-libdav1d --enable-libfreetype --enable-libgsm --enable-libmodplug --enable-libmp3lame --enable-libmysofa --enable-libopencore-amrnb --enable-libopencore-amrwb --enable-libopenh264 --enable-libopenjpeg --enable-libopus --enable-librubberband --enable-libshine --enable-libsnappy --enable-libsoxr --enable-libspeex --enable-libtheora --enable-libtwolame --enable-libvidstab --enable-libvmaf --enable-libvo-amrwbenc --enable-libvorbis --enable-libvpx --enable-libwebp --enable-libx264 --enable-libx265 --enable-libxavs --enable-libxvid --enable-libzimg --enable-libzmq --enable-libzvbi --enable-version3 --pkg-config-flags=--static --disable-ffplay\n",
      "  libavutil      57. 17.100 / 57. 17.100\n",
      "  libavcodec     59. 18.100 / 59. 18.100\n",
      "  libavformat    59. 16.100 / 59. 16.100\n",
      "  libavdevice    59.  4.100 / 59.  4.100\n",
      "  libavfilter     8. 24.100 /  8. 24.100\n",
      "  libswscale      6.  4.100 /  6.  4.100\n",
      "  libswresample   4.  3.100 /  4.  3.100\n",
      "  libpostproc    56.  3.100 / 56.  3.100\n",
      "Input #0, image2, from '/Users/jegpeek/Dropbox/dust-holograms/Chamaeleon_test_track_2/frames/Chamaeleon_test_track_2_%05d.png':\n",
      "  Duration: 00:00:00.76, start: 0.000000, bitrate: N/A\n",
      "  Stream #0:0: Video: png, gray16be(pc), 60x40, 25 fps, 25 tbr, 25 tbn\n",
      "Stream mapping:\n",
      "  Stream #0:0 -> #0:0 (png (native) -> h264 (libx264))\n",
      "Press [q] to stop, [?] for help\n",
      "[libx264 @ 0x7fb9fe008100] using cpu capabilities: MMX2 SSE2Fast SSSE3 SSE4.2 AVX FMA3 BMI2 AVX2\n",
      "[libx264 @ 0x7fb9fe008100] profile High, level 3.0, 4:2:0, 8-bit\n",
      "[libx264 @ 0x7fb9fe008100] 264 - core 164 r3081 19856cc - H.264/MPEG-4 AVC codec - Copyleft 2003-2021 - http://www.videolan.org/x264.html - options: cabac=1 ref=3 deblock=1:0:0 analyse=0x3:0x113 me=hex subme=7 psy=1 psy_rd=1.00:0.00 mixed_ref=1 me_range=16 chroma_me=1 trellis=1 8x8dct=1 cqm=0 deadzone=21,11 fast_pskip=1 chroma_qp_offset=-2 threads=12 lookahead_threads=2 sliced_threads=0 nr=0 decimate=1 interlaced=0 bluray_compat=0 constrained_intra=0 bframes=3 b_pyramid=2 b_adapt=1 b_bias=0 direct=1 weightb=1 open_gop=0 weightp=2 keyint=250 keyint_min=25 scenecut=40 intra_refresh=0 rc_lookahead=40 rc=crf mbtree=1 crf=23.0 qcomp=0.60 qpmin=0 qpmax=69 qpstep=4 ip_ratio=1.40 aq=1:1.00\n",
      "Output #0, mp4, to '/Users/jegpeek/Dropbox/dust-holograms/Chamaeleon_test_track_2/Chamaeleon_test_track_2.mp4':\n",
      "  Metadata:\n",
      "    encoder         : Lavf59.16.100\n",
      "  Stream #0:0: Video: h264 (avc1 / 0x31637661), yuv420p(tv, progressive), 600x400, q=2-31, 30 fps, 15360 tbn\n",
      "    Metadata:\n",
      "      encoder         : Lavc59.18.100 libx264\n",
      "    Side data:\n",
      "      cpb: bitrate max/min/avg: 0/0/0 buffer size: 0 vbv_delay: N/A\n",
      "frame=    1 fps=0.0 q=0.0 size=       0kB time=00:00:00.00 bitrate=N/A speed=   0x    \r",
      "frame=   19 fps=0.0 q=-1.0 Lsize=      55kB time=00:00:00.53 bitrate= 837.9kbits/s speed=   5x    \n",
      "video:54kB audio:0kB subtitle:0kB other streams:0kB global headers:0kB muxing overhead: 1.941393%\n",
      "[libx264 @ 0x7fb9fe008100] frame I:2     Avg QP:21.92  size:  3010\n",
      "[libx264 @ 0x7fb9fe008100] frame P:5     Avg QP:23.86  size:  2875\n",
      "[libx264 @ 0x7fb9fe008100] frame B:12    Avg QP:24.20  size:  2810\n",
      "[libx264 @ 0x7fb9fe008100] consecutive B-frames: 10.5%  0.0% 47.4% 42.1%\n",
      "[libx264 @ 0x7fb9fe008100] mb I  I16..4: 33.2% 66.4%  0.4%\n",
      "[libx264 @ 0x7fb9fe008100] mb P  I16..4: 12.5% 36.1%  0.0%  P16..4: 29.7%  3.9%  0.7%  0.0%  0.0%    skip:17.1%\n",
      "[libx264 @ 0x7fb9fe008100] mb B  I16..4:  4.3% 14.1%  0.1%  B16..8: 38.1% 10.9%  1.0%  direct: 2.4%  skip:29.0%  L0:57.2% L1:39.3% BI: 3.5%\n",
      "[libx264 @ 0x7fb9fe008100] 8x8 transform intra:72.6% inter:99.1%\n",
      "[libx264 @ 0x7fb9fe008100] coded y,uvDC,uvAC intra: 40.3% 0.0% 0.0% inter: 20.8% 0.0% 0.0%\n",
      "[libx264 @ 0x7fb9fe008100] i16 v,h,dc,p: 26% 16% 11% 47%\n",
      "[libx264 @ 0x7fb9fe008100] i8 v,h,dc,ddl,ddr,vr,hd,vl,hu: 21% 19% 24%  6%  7%  5%  6%  6%  6%\n",
      "[libx264 @ 0x7fb9fe008100] i4 v,h,dc,ddl,ddr,vr,hd,vl,hu: 26% 22%  8%  8% 14%  5% 10%  5%  2%\n",
      "[libx264 @ 0x7fb9fe008100] i8c dc,h,v,p: 100%  0%  0%  0%\n",
      "[libx264 @ 0x7fb9fe008100] Weighted P-Frames: Y:40.0% UV:0.0%\n",
      "[libx264 @ 0x7fb9fe008100] ref P L0: 58.7%  4.4% 21.9% 11.0%  4.0%\n",
      "[libx264 @ 0x7fb9fe008100] ref B L0: 68.9% 25.9%  5.2%\n",
      "[libx264 @ 0x7fb9fe008100] ref B L1: 93.9%  6.1%\n",
      "[libx264 @ 0x7fb9fe008100] kb/s:683.57\n"
     ]
    },
    {
     "name": "stdout",
     "output_type": "stream",
     "text": [
      "Ophiuchus\n",
      "[ 0.07728751 -0.99700885  0.        ]\n",
      "c hat [ 0.84702891 -0.47092279  0.24652334]\n",
      "178.64934316482677 16.912880738655456 27.70899823066707 -58.17050614102316\n",
      "c hat [ 0.86386381 -0.43588798  0.25246977]\n",
      "178.64934316482677 16.912880738655456 25.455874365086974 -2.253123865580099\n",
      "c hat [ 0.88006881 -0.39845925  0.25828107]\n",
      "178.64934316482677 16.912880738655456 23.095230166119197 -2.3606441989677736\n",
      "c hat [ 0.89541001 -0.35861509  0.26388658]\n",
      "178.64934316482677 16.912880738655456 20.627771884024718 -2.467458282094484\n",
      "c hat [ 0.90963298 -0.31637741  0.26920841]\n",
      "178.64934316482677 16.912880738655456 18.055851703691328 -2.5719201803333878\n",
      "c hat [ 0.92246878 -0.27181976  0.27416303]\n",
      "178.64934316482706 16.912880738655456 15.383702700159589 -2.6721490035317372\n",
      "c hat [ 0.93364235 -0.22507449  0.27866366]\n",
      "178.64934316482677 16.912880738655456 12.617629650204636 -2.766073049954954\n",
      "c hat [ 0.94288334 -0.1763377   0.28262344]\n",
      "178.64934316482677 16.912880738655456 9.766128714650328 -2.851500935554307\n",
      "c hat [ 0.94993883 -0.12587097  0.28595929]\n",
      "178.64934316482677 16.912880738655456 6.839909157165129 -2.926219557485199\n",
      "c hat [ 0.95458706 -0.073999    0.28859609]\n",
      "178.64934316482677 16.912880738655456 3.851794667862654 -2.988114489302476\n",
      "c hat [ 0.95665106 -0.0211026   0.29047104]\n",
      "178.64934316482677 16.912880738655456 0.8164910829370412 -3.0353035849256127\n",
      "c hat [0.95601073 0.03239307 0.29153759]\n",
      "178.64934316482677 16.912880738655456 2.24977913575337 1.4332880528163288\n",
      "c hat [0.95261179 0.08603431 0.29176853]\n",
      "178.64934316482706 16.912880738655456 5.3297591148051175 3.079979979051747\n",
      "c hat [0.94647056 0.13935763 0.2911579 ]\n",
      "178.64934316482677 16.912880738655456 8.405723980066426 3.0759648652613087\n",
      "c hat [0.93767385 0.19190948 0.28972141]\n",
      "178.64934316482677 16.912880738655456 11.460086560149634 3.0543625800832093\n",
      "c hat [0.92637382 0.24326527 0.28749532]\n",
      "178.64934316482677 16.912880738655478 14.475991451782251 3.015904891632617\n",
      "c hat [0.91277853 0.29304568 0.28453398]\n",
      "178.64934316482677 16.912880738655456 17.437848316408633 2.9618568646263808\n",
      "c hat [0.8971394  0.34092898 0.28090627]\n",
      "178.64934316482677 16.912880738655456 20.33176446817752 2.8939161517688903\n",
      "c hat [0.8797369  0.38665856 0.27669144]\n",
      "178.64934316482677 16.912880738655456 23.145851225317553 2.814086757140032\n",
      "Loaded specifications for 19 images.\n"
     ]
    },
    {
     "name": "stderr",
     "output_type": "stream",
     "text": [
      "100% (19 of 19) |########################| Elapsed Time: 0:00:05 ETA:  00:00:00"
     ]
    },
    {
     "name": "stdout",
     "output_type": "stream",
     "text": [
      "All workers done.\n",
      "0.397824734759316\n",
      "Loading map ...\n",
      "Ray-casting frames ...\n",
      "frame 0: vmax = 0.006167250935715856\n",
      "frame 1: vmax = 0.006225952444292489\n",
      "frame 2: vmax = 0.005824677149954369\n",
      "frame 3: vmax = 0.011831618370008073\n",
      "frame 4: vmax = 0.02148436343664798\n",
      "frame 5: vmax = 0.028786536781874022\n",
      "frame 6: vmax = 0.02585319432666438\n",
      "frame 7: vmax = 0.03096069690286822\n",
      "frame 8: vmax = 0.018174512062782016\n",
      "frame 9: vmax = 0.029408149367998702\n",
      "frame 10: vmax = 0.02327978836269176\n",
      "frame 11: vmax = 0.033226373343291926\n",
      "frame 12: vmax = 0.02715481006898335\n",
      "frame 13: vmax = 0.025520271641158616\n",
      "frame 14: vmax = 0.008390696336893598\n",
      "frame 15: vmax = 0.00714295678542112\n",
      "frame 16: vmax = 0.005765386742117699\n",
      "frame 17: vmax = 0.006527342159650289\n",
      "frame 18: vmax = 0.006134530672919937\n",
      "Worker finished.\n"
     ]
    },
    {
     "name": "stderr",
     "output_type": "stream",
     "text": [
      "ffmpeg version 5.0-tessus  https://evermeet.cx/ffmpeg/  Copyright (c) 2000-2022 the FFmpeg developers\n",
      "  built with Apple clang version 11.0.0 (clang-1100.0.33.17)\n",
      "  configuration: --cc=/usr/bin/clang --prefix=/opt/ffmpeg --extra-version=tessus --enable-avisynth --enable-fontconfig --enable-gpl --enable-libaom --enable-libass --enable-libbluray --enable-libdav1d --enable-libfreetype --enable-libgsm --enable-libmodplug --enable-libmp3lame --enable-libmysofa --enable-libopencore-amrnb --enable-libopencore-amrwb --enable-libopenh264 --enable-libopenjpeg --enable-libopus --enable-librubberband --enable-libshine --enable-libsnappy --enable-libsoxr --enable-libspeex --enable-libtheora --enable-libtwolame --enable-libvidstab --enable-libvmaf --enable-libvo-amrwbenc --enable-libvorbis --enable-libvpx --enable-libwebp --enable-libx264 --enable-libx265 --enable-libxavs --enable-libxvid --enable-libzimg --enable-libzmq --enable-libzvbi --enable-version3 --pkg-config-flags=--static --disable-ffplay\n",
      "  libavutil      57. 17.100 / 57. 17.100\n",
      "  libavcodec     59. 18.100 / 59. 18.100\n",
      "  libavformat    59. 16.100 / 59. 16.100\n",
      "  libavdevice    59.  4.100 / 59.  4.100\n",
      "  libavfilter     8. 24.100 /  8. 24.100\n",
      "  libswscale      6.  4.100 /  6.  4.100\n",
      "  libswresample   4.  3.100 /  4.  3.100\n",
      "  libpostproc    56.  3.100 / 56.  3.100\n",
      "Input #0, image2, from '/Users/jegpeek/Dropbox/dust-holograms/Ophiuchus_test_track_2/frames/Ophiuchus_test_track_2_%05d.png':\n",
      "  Duration: 00:00:00.76, start: 0.000000, bitrate: N/A\n",
      "  Stream #0:0: Video: png, gray16be(pc), 60x40, 25 fps, 25 tbr, 25 tbn\n",
      "Stream mapping:\n",
      "  Stream #0:0 -> #0:0 (png (native) -> h264 (libx264))\n",
      "Press [q] to stop, [?] for help\n",
      "[libx264 @ 0x7f8a1b007840] using cpu capabilities: MMX2 SSE2Fast SSSE3 SSE4.2 AVX FMA3 BMI2 AVX2\n",
      "[libx264 @ 0x7f8a1b007840] profile High, level 3.0, 4:2:0, 8-bit\n",
      "[libx264 @ 0x7f8a1b007840] 264 - core 164 r3081 19856cc - H.264/MPEG-4 AVC codec - Copyleft 2003-2021 - http://www.videolan.org/x264.html - options: cabac=1 ref=3 deblock=1:0:0 analyse=0x3:0x113 me=hex subme=7 psy=1 psy_rd=1.00:0.00 mixed_ref=1 me_range=16 chroma_me=1 trellis=1 8x8dct=1 cqm=0 deadzone=21,11 fast_pskip=1 chroma_qp_offset=-2 threads=12 lookahead_threads=2 sliced_threads=0 nr=0 decimate=1 interlaced=0 bluray_compat=0 constrained_intra=0 bframes=3 b_pyramid=2 b_adapt=1 b_bias=0 direct=1 weightb=1 open_gop=0 weightp=2 keyint=250 keyint_min=25 scenecut=40 intra_refresh=0 rc_lookahead=40 rc=crf mbtree=1 crf=23.0 qcomp=0.60 qpmin=0 qpmax=69 qpstep=4 ip_ratio=1.40 aq=1:1.00\n",
      "Output #0, mp4, to '/Users/jegpeek/Dropbox/dust-holograms/Ophiuchus_test_track_2/Ophiuchus_test_track_2.mp4':\n",
      "  Metadata:\n",
      "    encoder         : Lavf59.16.100\n",
      "  Stream #0:0: Video: h264 (avc1 / 0x31637661), yuv420p(tv, progressive), 600x400, q=2-31, 30 fps, 15360 tbn\n",
      "    Metadata:\n",
      "      encoder         : Lavc59.18.100 libx264\n",
      "    Side data:\n",
      "      cpb: bitrate max/min/avg: 0/0/0 buffer size: 0 vbv_delay: N/A\n",
      "frame=    1 fps=0.0 q=0.0 size=       0kB time=00:00:00.00 bitrate=N/A speed=   0x    \r",
      "frame=   19 fps=0.0 q=-1.0 Lsize=      60kB time=00:00:00.53 bitrate= 922.5kbits/s speed=4.01x    \n",
      "video:59kB audio:0kB subtitle:0kB other streams:0kB global headers:0kB muxing overhead: 1.720003%\n",
      "[libx264 @ 0x7f8a1b007840] frame I:2     Avg QP:23.96  size:  3963\n",
      "[libx264 @ 0x7f8a1b007840] frame P:9     Avg QP:24.59  size:  3215\n",
      "[libx264 @ 0x7f8a1b007840] frame B:8     Avg QP:24.30  size:  2864\n",
      "[libx264 @ 0x7f8a1b007840] consecutive B-frames: 36.8% 10.5% 31.6% 21.1%\n",
      "[libx264 @ 0x7f8a1b007840] mb I  I16..4: 22.5% 77.1%  0.4%\n",
      "[libx264 @ 0x7f8a1b007840] mb P  I16..4: 13.6% 42.2%  0.3%  P16..4: 31.7%  3.7%  0.6%  0.0%  0.0%    skip: 7.9%\n",
      "[libx264 @ 0x7f8a1b007840] mb B  I16..4:  5.2% 15.1%  0.0%  B16..8: 41.0% 10.1%  0.9%  direct: 3.3%  skip:24.4%  L0:44.7% L1:52.6% BI: 2.7%\n",
      "[libx264 @ 0x7f8a1b007840] 8x8 transform intra:75.5% inter:98.9%\n",
      "[libx264 @ 0x7f8a1b007840] coded y,uvDC,uvAC intra: 45.6% 0.0% 0.0% inter: 23.9% 0.0% 0.0%\n",
      "[libx264 @ 0x7f8a1b007840] i16 v,h,dc,p: 10% 20%  7% 64%\n",
      "[libx264 @ 0x7f8a1b007840] i8 v,h,dc,ddl,ddr,vr,hd,vl,hu: 17% 22% 20%  6%  8%  6%  7%  6%  7%\n",
      "[libx264 @ 0x7f8a1b007840] i4 v,h,dc,ddl,ddr,vr,hd,vl,hu: 23% 27%  7%  6%  8% 10% 10%  6%  4%\n",
      "[libx264 @ 0x7f8a1b007840] i8c dc,h,v,p: 100%  0%  0%  0%\n",
      "[libx264 @ 0x7f8a1b007840] Weighted P-Frames: Y:55.6% UV:0.0%\n",
      "[libx264 @ 0x7f8a1b007840] ref P L0: 64.6%  4.7% 16.6%  9.3%  4.7%\n",
      "[libx264 @ 0x7f8a1b007840] ref B L0: 48.0% 30.8% 21.2%\n",
      "[libx264 @ 0x7f8a1b007840] ref B L1: 95.1%  4.9%\n",
      "[libx264 @ 0x7f8a1b007840] kb/s:755.05\n"
     ]
    },
    {
     "name": "stdout",
     "output_type": "stream",
     "text": [
      "Lupus\n",
      "[ 0.31073886 -0.95049533  0.        ]\n",
      "c hat [ 0.81349044 -0.57818329  0.06274857]\n",
      "178.1184964096876 5.734923978005336 35.15647328356763 12.010622058250075\n",
      "c hat [ 0.8276761  -0.55744603  0.06485522]\n",
      "178.1184964096876 5.7349239780052725 33.71182585689949 -1.4446474266681437\n",
      "c hat [ 0.84225504 -0.53489183  0.06706106]\n",
      "178.1184964096876 5.7349239780052725 32.16786958759563 -1.5439562693038555\n",
      "c hat [ 0.85717121 -0.51033893  0.06936646]\n",
      "178.1184964096876 5.734923978005336 30.51648907486113 -1.651380512734502\n",
      "c hat [ 0.87234597 -0.48359238  0.07176989]\n",
      "178.1184964096876 5.7349239780052725 28.74911793534871 -1.7673711395124199\n",
      "c hat [ 0.88767287 -0.45444607  0.07426745]\n",
      "178.1184964096876 5.7349239780052725 26.856831610466443 -1.8922863248822677\n",
      "c hat [ 0.90301165 -0.42268631  0.07685206]\n",
      "178.1184964096876 5.7349239780052725 24.830494868447136 -2.0263367420193052\n",
      "c hat [ 0.91818193 -0.38809752  0.07951266]\n",
      "178.1184964096876 5.7349239780052725 22.660979947604122 -2.1695149208430125\n",
      "c hat [ 0.93295662 -0.35047059  0.08223332]\n",
      "178.1184964096876 5.7349239780052725 20.339472724235453 -2.3215072233686733\n",
      "c hat [ 0.94705607 -0.30961448  0.08499221]\n",
      "178.1184964096876 5.734923978005336 17.85788386957732 -2.481588854658132\n",
      "c hat [ 0.96014372 -0.26537161  0.08776069]\n",
      "178.1184964096876 5.7349239780052725 15.209378237186682 -2.6485056323906373\n",
      "c hat [ 0.97182478 -0.21763704  0.09050253]\n",
      "178.1184964096876 5.7349239780052725 12.389026873577471 -2.8203513636092112\n",
      "c hat [ 0.98164961 -0.16638129  0.09317352]\n",
      "178.1184964096876 5.734923978005336 9.39457019195505 -2.9944566816224207\n",
      "c hat [ 0.98912385 -0.11167527  0.09572166]\n",
      "178.1184964096876 5.7349239780052725 6.2272567757832125 -3.167313416171838\n",
      "c hat [ 0.99372703 -0.05371497  0.09808821]\n",
      "178.1184964096876 5.7349239780052725 2.8926906370214276 -3.334566138761785\n",
      "c hat [0.99494058 0.00715785 0.10020984]\n",
      "178.1184964096876 5.7349239780052725 0.5984154260688617 -2.294275210952566\n",
      "c hat [0.99228484 0.07044372 0.10202194]\n",
      "178.1184964096876 5.7349239780052725 4.229712865419777 3.631297439350915\n",
      "c hat [0.98536216 0.1354873  0.10346303]\n",
      "178.1184964096876 5.7349239780052725 7.979061646186147 3.7493487807663697\n",
      "c hat [0.97390094 0.20149675 0.10447979]\n",
      "178.1184964096876 5.7349239780052725 11.81887137868355 3.8398097324974025\n",
      "Loaded specifications for 19 images.\n"
     ]
    },
    {
     "name": "stderr",
     "output_type": "stream",
     "text": [
      "100% (19 of 19) |########################| Elapsed Time: 0:00:04 ETA:  00:00:00"
     ]
    },
    {
     "name": "stdout",
     "output_type": "stream",
     "text": [
      "All workers done.\n",
      "0.397824734759316\n",
      "Loading map ...\n",
      "Ray-casting frames ...\n",
      "frame 0: vmax = 0.00574962668263106\n",
      "frame 1: vmax = 0.00631423265903868\n",
      "frame 2: vmax = 0.005616942089385703\n",
      "frame 3: vmax = 0.006380497122798261\n",
      "frame 4: vmax = 0.006205235002413247\n",
      "frame 5: vmax = 0.005550515785951575\n",
      "frame 6: vmax = 0.0057016328157988025\n",
      "frame 7: vmax = 0.005460348685395729\n",
      "frame 8: vmax = 0.00509413837855027\n",
      "frame 9: vmax = 0.00587353877145506\n",
      "frame 10: vmax = 0.007414871053566458\n",
      "frame 11: vmax = 0.012378338458831422\n",
      "frame 12: vmax = 0.03049016686071991\n",
      "frame 13: vmax = 0.023389317715380456\n",
      "frame 14: vmax = 0.0200459689466079\n",
      "frame 15: vmax = 0.026696261739416513\n",
      "frame 16: vmax = 0.022038747488419178\n",
      "frame 17: vmax = 0.008891355177911465\n",
      "frame 18: vmax = 0.007657136558700586\n",
      "Worker finished.\n"
     ]
    },
    {
     "name": "stderr",
     "output_type": "stream",
     "text": [
      "ffmpeg version 5.0-tessus  https://evermeet.cx/ffmpeg/  Copyright (c) 2000-2022 the FFmpeg developers\n",
      "  built with Apple clang version 11.0.0 (clang-1100.0.33.17)\n",
      "  configuration: --cc=/usr/bin/clang --prefix=/opt/ffmpeg --extra-version=tessus --enable-avisynth --enable-fontconfig --enable-gpl --enable-libaom --enable-libass --enable-libbluray --enable-libdav1d --enable-libfreetype --enable-libgsm --enable-libmodplug --enable-libmp3lame --enable-libmysofa --enable-libopencore-amrnb --enable-libopencore-amrwb --enable-libopenh264 --enable-libopenjpeg --enable-libopus --enable-librubberband --enable-libshine --enable-libsnappy --enable-libsoxr --enable-libspeex --enable-libtheora --enable-libtwolame --enable-libvidstab --enable-libvmaf --enable-libvo-amrwbenc --enable-libvorbis --enable-libvpx --enable-libwebp --enable-libx264 --enable-libx265 --enable-libxavs --enable-libxvid --enable-libzimg --enable-libzmq --enable-libzvbi --enable-version3 --pkg-config-flags=--static --disable-ffplay\n",
      "  libavutil      57. 17.100 / 57. 17.100\n",
      "  libavcodec     59. 18.100 / 59. 18.100\n",
      "  libavformat    59. 16.100 / 59. 16.100\n",
      "  libavdevice    59.  4.100 / 59.  4.100\n",
      "  libavfilter     8. 24.100 /  8. 24.100\n",
      "  libswscale      6.  4.100 /  6.  4.100\n",
      "  libswresample   4.  3.100 /  4.  3.100\n",
      "  libpostproc    56.  3.100 / 56.  3.100\n",
      "Input #0, image2, from '/Users/jegpeek/Dropbox/dust-holograms/Lupus_test_track_2/frames/Lupus_test_track_2_%05d.png':\n",
      "  Duration: 00:00:00.76, start: 0.000000, bitrate: N/A\n",
      "  Stream #0:0: Video: png, gray16be(pc), 60x40, 25 fps, 25 tbr, 25 tbn\n",
      "Stream mapping:\n",
      "  Stream #0:0 -> #0:0 (png (native) -> h264 (libx264))\n",
      "Press [q] to stop, [?] for help\n",
      "[libx264 @ 0x7fd098207ec0] using cpu capabilities: MMX2 SSE2Fast SSSE3 SSE4.2 AVX FMA3 BMI2 AVX2\n",
      "[libx264 @ 0x7fd098207ec0] profile High, level 3.0, 4:2:0, 8-bit\n",
      "[libx264 @ 0x7fd098207ec0] 264 - core 164 r3081 19856cc - H.264/MPEG-4 AVC codec - Copyleft 2003-2021 - http://www.videolan.org/x264.html - options: cabac=1 ref=3 deblock=1:0:0 analyse=0x3:0x113 me=hex subme=7 psy=1 psy_rd=1.00:0.00 mixed_ref=1 me_range=16 chroma_me=1 trellis=1 8x8dct=1 cqm=0 deadzone=21,11 fast_pskip=1 chroma_qp_offset=-2 threads=12 lookahead_threads=2 sliced_threads=0 nr=0 decimate=1 interlaced=0 bluray_compat=0 constrained_intra=0 bframes=3 b_pyramid=2 b_adapt=1 b_bias=0 direct=1 weightb=1 open_gop=0 weightp=2 keyint=250 keyint_min=25 scenecut=40 intra_refresh=0 rc_lookahead=40 rc=crf mbtree=1 crf=23.0 qcomp=0.60 qpmin=0 qpmax=69 qpstep=4 ip_ratio=1.40 aq=1:1.00\n",
      "Output #0, mp4, to '/Users/jegpeek/Dropbox/dust-holograms/Lupus_test_track_2/Lupus_test_track_2.mp4':\n",
      "  Metadata:\n",
      "    encoder         : Lavf59.16.100\n",
      "  Stream #0:0: Video: h264 (avc1 / 0x31637661), yuv420p(tv, progressive), 600x400, q=2-31, 30 fps, 15360 tbn\n",
      "    Metadata:\n",
      "      encoder         : Lavc59.18.100 libx264\n",
      "    Side data:\n",
      "      cpb: bitrate max/min/avg: 0/0/0 buffer size: 0 vbv_delay: N/A\n",
      "frame=    1 fps=0.0 q=0.0 size=       0kB time=00:00:00.00 bitrate=N/A speed=   0x    \r",
      "frame=   19 fps=0.0 q=-1.0 Lsize=      69kB time=00:00:00.53 bitrate=1053.6kbits/s speed=3.95x    \n",
      "video:68kB audio:0kB subtitle:0kB other streams:0kB global headers:0kB muxing overhead: 1.537972%\n",
      "[libx264 @ 0x7fd098207ec0] frame I:1     Avg QP:26.00  size:  4361\n",
      "[libx264 @ 0x7fd098207ec0] frame P:8     Avg QP:24.60  size:  3292\n",
      "[libx264 @ 0x7fd098207ec0] frame B:10    Avg QP:26.36  size:  3779\n",
      "[libx264 @ 0x7fd098207ec0] consecutive B-frames: 26.3% 10.5%  0.0% 63.2%\n",
      "[libx264 @ 0x7fd098207ec0] mb I  I16..4: 14.9% 84.2%  0.8%\n",
      "[libx264 @ 0x7fd098207ec0] mb P  I16..4: 15.5% 47.3%  0.2%  P16..4: 27.5%  3.4%  0.4%  0.0%  0.0%    skip: 5.7%\n",
      "[libx264 @ 0x7fd098207ec0] mb B  I16..4:  4.2% 22.3%  0.2%  B16..8: 28.9% 14.1%  1.8%  direct: 9.3%  skip:19.2%  L0:50.6% L1:41.3% BI: 8.2%\n",
      "[libx264 @ 0x7fd098207ec0] 8x8 transform intra:78.8% inter:95.2%\n",
      "[libx264 @ 0x7fd098207ec0] coded y,uvDC,uvAC intra: 48.6% 0.0% 0.0% inter: 32.3% 0.0% 0.0%\n",
      "[libx264 @ 0x7fd098207ec0] i16 v,h,dc,p:  7% 20%  7% 65%\n",
      "[libx264 @ 0x7fd098207ec0] i8 v,h,dc,ddl,ddr,vr,hd,vl,hu: 17% 22% 19%  6%  9%  6%  8%  6%  7%\n",
      "[libx264 @ 0x7fd098207ec0] i4 v,h,dc,ddl,ddr,vr,hd,vl,hu: 30% 24%  7%  4% 10%  9%  9%  4%  3%\n",
      "[libx264 @ 0x7fd098207ec0] i8c dc,h,v,p: 100%  0%  0%  0%\n",
      "[libx264 @ 0x7fd098207ec0] Weighted P-Frames: Y:50.0% UV:0.0%\n",
      "[libx264 @ 0x7fd098207ec0] ref P L0: 63.7%  6.1% 20.3%  8.2%  1.6%\n",
      "[libx264 @ 0x7fd098207ec0] ref B L0: 77.2% 15.0%  7.8%\n",
      "[libx264 @ 0x7fd098207ec0] ref B L1: 91.4%  8.6%\n",
      "[libx264 @ 0x7fd098207ec0] kb/s:865.16\n"
     ]
    },
    {
     "name": "stdout",
     "output_type": "stream",
     "text": [
      "Taurus\n",
      "[-0.12663189  0.99194978  0.        ]\n",
      "c hat [-0.84045484  0.49586836 -0.21851826]\n",
      "177.94424625705352 15.695210434490745 150.8097877572202 138.99091637853667\n",
      "c hat [-0.85698571  0.46396094 -0.2243117 ]\n",
      "177.94424625705352 15.695210434490745 152.8954350603871 2.0856473031668705\n",
      "c hat [-0.87316478  0.42969934 -0.23009072]\n",
      "177.94424625705352 15.695210434490745 155.09158846789438 2.196153407507317\n",
      "c hat [-0.88878962  0.39300221 -0.23580133]\n",
      "177.94424625705352 15.695210434490745 157.400292082505 2.308703614610585\n",
      "c hat [-0.90363028  0.35381871 -0.24138069]\n",
      "177.94424625705352 15.695210434490745 159.82234390477308 2.4220518222680845\n",
      "c hat [-0.91743165  0.31213766 -0.24675748]\n",
      "177.94424625705352 15.695210434490745 162.3570045044864 2.5346605997133547\n",
      "c hat [-0.92991809  0.26799723 -0.25185281]\n",
      "177.94424625705352 15.695210434490745 165.00170602155524 2.644701517068832\n",
      "c hat [-0.94080078  0.22149389 -0.25658203]\n",
      "177.94424625705352 15.695210434490745 167.75178470405845 2.750078682503204\n",
      "c hat [-0.94978792  0.17279006 -0.26085725]\n",
      "177.94424625705352 15.695210434490745 170.6002659459115 2.8484812418530416\n",
      "c hat [-0.95659746  0.12211883 -0.26459079]\n",
      "177.94424625705352 15.695210434490745 173.53773430296368 2.9374683570521816\n",
      "c hat [-0.96097198  0.06978487 -0.26769934]\n",
      "177.94424625705352 15.695210434490745 176.5523205184365 3.014586215472842\n",
      "c hat [-0.96269427  0.01616034 -0.27010846]\n",
      "177.94424625705352 15.695210434490745 179.62983168852236 3.0775111700858533\n",
      "c hat [-0.96160243 -0.03832473 -0.27175721]\n",
      "177.94424625705352 15.695210434490745 177.24596129496805 -2.3838703935543193\n",
      "c hat [-0.95760239 -0.09319731 -0.27260214]\n",
      "177.94424625705352 15.695210434490745 174.09288219123192 -3.153079103736126\n",
      "c hat [-0.95067646 -0.14796067 -0.27262045]\n",
      "177.94424625705352 15.695210434490745 170.9297770522117 -3.1631051390202076\n",
      "c hat [-0.9408865  -0.20211636 -0.27181165]\n",
      "177.94424625705352 15.695210434490745 167.77585349520186 -3.1539235570098523\n",
      "c hat [-0.92837119 -0.25518661 -0.27019758]\n",
      "177.94424625705352 15.695210434490745 164.64998789428665 -3.1258656009152177\n",
      "c hat [-0.91333766 -0.30673495 -0.26782082]\n",
      "177.94424625705352 15.695210434490745 161.57006197898994 -3.079925915296714\n",
      "c hat [-0.89604858 -0.35638296 -0.26474163]\n",
      "177.94424625705352 15.695210434490745 158.5523855581293 -3.017676420860651\n",
      "Loaded specifications for 19 images.\n"
     ]
    },
    {
     "name": "stderr",
     "output_type": "stream",
     "text": [
      "100% (19 of 19) |########################| Elapsed Time: 0:00:05 ETA:  00:00:00"
     ]
    },
    {
     "name": "stdout",
     "output_type": "stream",
     "text": [
      "All workers done.\n",
      "0.397824734759316\n",
      "Loading map ...\n",
      "Ray-casting frames ...\n",
      "frame 0: vmax = 0.011659327849600231\n",
      "frame 1: vmax = 0.01490865574820782\n",
      "frame 2: vmax = 0.01166055076941484\n",
      "frame 3: vmax = 0.015311975208158402\n",
      "frame 4: vmax = 0.018385176525163843\n",
      "frame 5: vmax = 0.016212674459824484\n",
      "frame 6: vmax = 0.013112980787736888\n",
      "frame 7: vmax = 0.015113844896670343\n",
      "frame 8: vmax = 0.014957770682916817\n",
      "frame 9: vmax = 0.013637898490404041\n",
      "frame 10: vmax = 0.01476089895021505\n",
      "frame 11: vmax = 0.021751435977328582\n",
      "frame 12: vmax = 0.017710748551946383\n",
      "frame 13: vmax = 0.02022713482791005\n",
      "frame 14: vmax = 0.014120516257344206\n",
      "frame 15: vmax = 0.014920430658450641\n",
      "frame 16: vmax = 0.01368677093804763\n",
      "frame 17: vmax = 0.0148204499443018\n",
      "frame 18: vmax = 0.017752781319628413\n",
      "Worker finished.\n"
     ]
    },
    {
     "name": "stderr",
     "output_type": "stream",
     "text": [
      "ffmpeg version 5.0-tessus  https://evermeet.cx/ffmpeg/  Copyright (c) 2000-2022 the FFmpeg developers\n",
      "  built with Apple clang version 11.0.0 (clang-1100.0.33.17)\n",
      "  configuration: --cc=/usr/bin/clang --prefix=/opt/ffmpeg --extra-version=tessus --enable-avisynth --enable-fontconfig --enable-gpl --enable-libaom --enable-libass --enable-libbluray --enable-libdav1d --enable-libfreetype --enable-libgsm --enable-libmodplug --enable-libmp3lame --enable-libmysofa --enable-libopencore-amrnb --enable-libopencore-amrwb --enable-libopenh264 --enable-libopenjpeg --enable-libopus --enable-librubberband --enable-libshine --enable-libsnappy --enable-libsoxr --enable-libspeex --enable-libtheora --enable-libtwolame --enable-libvidstab --enable-libvmaf --enable-libvo-amrwbenc --enable-libvorbis --enable-libvpx --enable-libwebp --enable-libx264 --enable-libx265 --enable-libxavs --enable-libxvid --enable-libzimg --enable-libzmq --enable-libzvbi --enable-version3 --pkg-config-flags=--static --disable-ffplay\n",
      "  libavutil      57. 17.100 / 57. 17.100\n",
      "  libavcodec     59. 18.100 / 59. 18.100\n",
      "  libavformat    59. 16.100 / 59. 16.100\n",
      "  libavdevice    59.  4.100 / 59.  4.100\n",
      "  libavfilter     8. 24.100 /  8. 24.100\n",
      "  libswscale      6.  4.100 /  6.  4.100\n",
      "  libswresample   4.  3.100 /  4.  3.100\n",
      "  libpostproc    56.  3.100 / 56.  3.100\n",
      "Input #0, image2, from '/Users/jegpeek/Dropbox/dust-holograms/Taurus_test_track_2/frames/Taurus_test_track_2_%05d.png':\n",
      "  Duration: 00:00:00.76, start: 0.000000, bitrate: N/A\n",
      "  Stream #0:0: Video: png, gray16be(pc), 60x40, 25 fps, 25 tbr, 25 tbn\n",
      "Stream mapping:\n",
      "  Stream #0:0 -> #0:0 (png (native) -> h264 (libx264))\n",
      "Press [q] to stop, [?] for help\n",
      "[libx264 @ 0x7f9dfc708980] using cpu capabilities: MMX2 SSE2Fast SSSE3 SSE4.2 AVX FMA3 BMI2 AVX2\n",
      "[libx264 @ 0x7f9dfc708980] profile High, level 3.0, 4:2:0, 8-bit\n",
      "[libx264 @ 0x7f9dfc708980] 264 - core 164 r3081 19856cc - H.264/MPEG-4 AVC codec - Copyleft 2003-2021 - http://www.videolan.org/x264.html - options: cabac=1 ref=3 deblock=1:0:0 analyse=0x3:0x113 me=hex subme=7 psy=1 psy_rd=1.00:0.00 mixed_ref=1 me_range=16 chroma_me=1 trellis=1 8x8dct=1 cqm=0 deadzone=21,11 fast_pskip=1 chroma_qp_offset=-2 threads=12 lookahead_threads=2 sliced_threads=0 nr=0 decimate=1 interlaced=0 bluray_compat=0 constrained_intra=0 bframes=3 b_pyramid=2 b_adapt=1 b_bias=0 direct=1 weightb=1 open_gop=0 weightp=2 keyint=250 keyint_min=25 scenecut=40 intra_refresh=0 rc_lookahead=40 rc=crf mbtree=1 crf=23.0 qcomp=0.60 qpmin=0 qpmax=69 qpstep=4 ip_ratio=1.40 aq=1:1.00\n",
      "Output #0, mp4, to '/Users/jegpeek/Dropbox/dust-holograms/Taurus_test_track_2/Taurus_test_track_2.mp4':\n",
      "  Metadata:\n",
      "    encoder         : Lavf59.16.100\n",
      "  Stream #0:0: Video: h264 (avc1 / 0x31637661), yuv420p(tv, progressive), 600x400, q=2-31, 30 fps, 15360 tbn\n",
      "    Metadata:\n",
      "      encoder         : Lavc59.18.100 libx264\n",
      "    Side data:\n",
      "      cpb: bitrate max/min/avg: 0/0/0 buffer size: 0 vbv_delay: N/A\n",
      "frame=    1 fps=0.0 q=0.0 size=       0kB time=00:00:00.00 bitrate=N/A speed=   0x    \r",
      "frame=   19 fps=0.0 q=-1.0 Lsize=      66kB time=00:00:00.53 bitrate=1019.9kbits/s speed= 5.3x    \n",
      "video:65kB audio:0kB subtitle:0kB other streams:0kB global headers:0kB muxing overhead: 1.601697%\n",
      "[libx264 @ 0x7f9dfc708980] frame I:1     Avg QP:24.03  size:  3106\n",
      "[libx264 @ 0x7f9dfc708980] frame P:5     Avg QP:24.39  size:  3439\n",
      "[libx264 @ 0x7f9dfc708980] frame B:13    Avg QP:25.10  size:  3534\n",
      "[libx264 @ 0x7f9dfc708980] consecutive B-frames:  5.3%  0.0% 31.6% 63.2%\n",
      "[libx264 @ 0x7f9dfc708980] mb I  I16..4: 19.4% 80.0%  0.6%\n",
      "[libx264 @ 0x7f9dfc708980] mb P  I16..4: 12.6% 52.8%  0.2%  P16..4: 25.7%  3.6%  0.4%  0.0%  0.0%    skip: 4.8%\n",
      "[libx264 @ 0x7f9dfc708980] mb B  I16..4:  4.1% 19.8%  0.1%  B16..8: 38.7% 13.9%  1.3%  direct: 3.0%  skip:19.1%  L0:52.2% L1:44.0% BI: 3.8%\n",
      "[libx264 @ 0x7f9dfc708980] 8x8 transform intra:81.2% inter:98.7%\n",
      "[libx264 @ 0x7f9dfc708980] coded y,uvDC,uvAC intra: 45.9% 0.0% 0.0% inter: 27.8% 0.0% 0.0%\n",
      "[libx264 @ 0x7f9dfc708980] i16 v,h,dc,p: 11% 20%  8% 61%\n",
      "[libx264 @ 0x7f9dfc708980] i8 v,h,dc,ddl,ddr,vr,hd,vl,hu: 21% 19% 19%  6%  8%  6%  7%  6%  7%\n",
      "[libx264 @ 0x7f9dfc708980] i4 v,h,dc,ddl,ddr,vr,hd,vl,hu: 14% 33% 11%  3% 13% 11%  9%  4%  2%\n",
      "[libx264 @ 0x7f9dfc708980] i8c dc,h,v,p: 100%  0%  0%  0%\n",
      "[libx264 @ 0x7f9dfc708980] Weighted P-Frames: Y:0.0% UV:0.0%\n",
      "[libx264 @ 0x7f9dfc708980] ref P L0: 50.9%  5.0% 27.3% 16.8%\n",
      "[libx264 @ 0x7f9dfc708980] ref B L0: 77.4% 17.9%  4.7%\n",
      "[libx264 @ 0x7f9dfc708980] ref B L1: 90.2%  9.8%\n",
      "[libx264 @ 0x7f9dfc708980] kb/s:836.70\n"
     ]
    }
   ],
   "source": [
    "makeimages = True\n",
    "makemovies = True\n",
    "oldzeta = 0\n",
    "for c in clouds[0:4]:\n",
    "    print(c['cloud'])\n",
    "    run_name = c['cloud'] + '_test_track_2'\n",
    "    define_paths(run_name)\n",
    "    if arc:\n",
    "        xs, ys, angs = sweep(c['x'], c['y'], angle_sweep, nframes)\n",
    "        print(xs, ys, angs)\n",
    "        plot_ang(c['x'], c['y'], xs, ys, run_name)\n",
    "        # we make an empty list of frames to which we can append frames\n",
    "        fprops = []\n",
    "        allprops = build_fprops(fprops, cprops, angs, xs, ys, np.float(c['z']))\n",
    "    if not arc:\n",
    "        #hardcoding a track\n",
    "        #xts, yts, zts, t_hat = track(c['xt1'], c['yt1'], c['zt1'], c['xt2'], c['yt2'], c['zt2'], nframes)\n",
    "        xts, yts, zts, t_hat = track(c['y']*0.5, c['x']*0.5, 0, c['y']*(-0.5), c['x']*(-0.5), 0, nframes)\n",
    "        \n",
    "        print(t_hat)\n",
    "        fprops = []\n",
    "        thetas = np.zeros(nframes)\n",
    "        phis = np.zeros(nframes)\n",
    "        zetas = np.zeros(nframes)\n",
    "        for j in np.arange(nframes):\n",
    "            v_pos = np.array([xts[j], yts[j], zts[j]])\n",
    "            c_pos = np.array([c['x'], c['y'], c['z']])\n",
    "            thetas[j], phis[j], zetas[j] = determine_angles(v_pos, c_pos, t_hat)\n",
    "            print(thetas[j]*180/np.pi, phis[j]*180/np.pi, zetas[j]*180/np.pi,(zetas[j]-oldzeta)*180/np.pi )\n",
    "            oldzeta = zetas[j]\n",
    "        allprops = build_fprops_track(fprops, cprops, thetas, phis, zetas, xts, yts, zts)\n",
    "\n",
    "    with open('{}/{}/{}.json'.format(os.environ['DROPBOX_ROOT'],run_name,run_name), 'w') as outfile:\n",
    "        json.dump(allprops, outfile,indent=2)\n",
    "    if makeimages:\n",
    "        os.system(\"python3 project_frames.py {}/{}/{}.json {}/leike2020_bayestar19_splice.npy {}/{}/frames/{}_{{:05d}}.png\"\n",
    "          .format(os.environ['DROPBOX_ROOT'],run_name,run_name,os.environ['DROPBOX_ROOT'],os.environ['DROPBOX_ROOT'],run_name, run_name))\n",
    "    if makemovies:\n",
    "        os.system(\"{}/ffmpeg -y -r 30 -start_number 0 -i {}/{}/frames/{}_%05d.png -c:v libx264 -s 600x400 -r 30 -pix_fmt yuv420p {}/{}/{}.mp4\"\n",
    "          .format(os.environ['FFMPEG_ROOT'],os.environ['DROPBOX_ROOT'],run_name,run_name,os.environ['DROPBOX_ROOT'],run_name, run_name))\n"
   ]
  },
  {
   "cell_type": "code",
   "execution_count": null,
   "metadata": {},
   "outputs": [],
   "source": []
  }
 ],
 "metadata": {
  "kernelspec": {
   "display_name": "Python 3 (ipykernel)",
   "language": "python",
   "name": "python3"
  },
  "language_info": {
   "codemirror_mode": {
    "name": "ipython",
    "version": 3
   },
   "file_extension": ".py",
   "mimetype": "text/x-python",
   "name": "python",
   "nbconvert_exporter": "python",
   "pygments_lexer": "ipython3",
   "version": "3.8.3"
  }
 },
 "nbformat": 4,
 "nbformat_minor": 4
}
